<?xml version="1.0" encoding="UTF-8" standalone="no"?>
<!-- Created with Inkscape (http://www.inkscape.org/) -->

<svg
   width="100mm"
   height="100mm"
   viewBox="0 0 100 100"
   version="1.1"
   id="svg5"
   xmlns="http://www.w3.org/2000/svg"
   xmlns:svg="http://www.w3.org/2000/svg">
  <defs
     id="defs2" />
  <g
     id="layer1">
    <rect
       style="stroke-width:0.290229;fill:#ffca80;stroke-linecap:round;stroke-linejoin:round;stop-color:#000000;fill-opacity:1"
       id="rect660"
       width="5.581306"
       height="7.441741"
       x="768.83057"
       y="6.474288"
       ry="0.82338208"
       transform="matrix(13.437715,0,0,13.437715,-10318.826,-86.999638)" />
    <path
       id="path1482"
       style="stroke-width:0.709558;fill:#000000;fill-opacity:1;stroke:none;stroke-linecap:round;stroke-linejoin:round;stroke-dasharray:none;stroke-opacity:1;stop-color:#000000"
       d="m 765.26675,8.4242427 v 1.5469975 h 1.54719 V 22.460964 h -1.54719 v 1.422138 h 4.64134 v -1.546998 h -1.54715 v -3.373911 c 0.78917,0.684934 2.14111,0.661728 3.08533,0.373838 1.01684,-0.310016 1.56809,-0.938402 1.86814,-1.438922 0.003,-0.0045 0,1.630961 0,1.630961 v 0 h 1.54603 1.54765 v -1.547 h -1.54765 v -5.711032 0 -0.553581 h -3.09415 v 1.546998 h 1.54812 v 1.160259 c -0.005,0.391857 -0.0378,0.807319 -0.22672,1.362637 -0.22816,0.670538 -0.68431,1.544323 -1.51151,1.981276 -0.82717,0.436954 -2.02532,0.436967 -2.62294,-0.245281 -0.59751,-0.682248 -0.5916,-2.492441 -0.5916,-2.492441 v -6.6045331 -0.00112 z"
       transform="matrix(5.4964057,0,0,5.4964057,-4185.4072,-38.787144)" />
  </g>
</svg>
